<svg width="35" height="35" viewBox="0 0 35 35" fill="none" xmlns="http://www.w3.org/2000/svg">
<rect width="35" height="35" rx="4" fill="#302F3D"/>
<path d="M2.8 4.8C2.8 3.69543 3.69543 2.8 4.8 2.8H14.8C15.9046 2.8 16.8 3.69543 16.8 4.8V6.8C16.8 12.3228 12.3228 16.8 6.8 16.8H4.8C3.69543 16.8 2.8 15.9046 2.8 14.8V4.8Z" fill="#F178B6"/>
<path d="M2.8 28.9C2.8 23.3772 7.27715 18.9 12.8 18.9H14.8C15.9046 18.9 16.8 19.7954 16.8 20.9V27.9C16.8 30.6614 14.5614 32.9 11.8 32.9H4.8C3.69543 32.9 2.8 32.0046 2.8 30.9V28.9Z" fill="#F178B6"/>
<path d="M18.2 4.8C18.2 3.69543 19.0954 2.8 20.2 2.8H30.2C31.3046 2.8 32.2 3.69543 32.2 4.8V14.8C32.2 15.9046 31.3046 16.8 30.2 16.8H28.2C22.6772 16.8 18.2 12.3228 18.2 6.8V4.8Z" fill="#F178B6"/>
<path d="M18.2 20.9C18.2 19.7954 19.0954 18.9 20.2 18.9H22.2C27.7228 18.9 32.2 23.3772 32.2 28.9V30.9C32.2 32.0046 31.3046 32.9 30.2 32.9H23.2C20.4386 32.9 18.2 30.6614 18.2 27.9V20.9Z" fill="#F178B6"/>
<path d="M16.7 5H18.3V8H16.7V5Z" fill="#F178B6"/>
</svg>
